<?xml version="1.0" standalone="no"?>
<!DOCTYPE svg PUBLIC "-//W3C//DTD SVG 20010904//EN"
 "http://www.w3.org/TR/2001/REC-SVG-20010904/DTD/svg10.dtd">
<svg version="1.0" xmlns="http://www.w3.org/2000/svg"
 width="300.000000pt" height="272.000000pt" viewBox="0 0 300.000000 272.000000"
 preserveAspectRatio="xMidYMid meet">
<metadata>
Created by potrace 1.16, written by Peter Selinger 2001-2019
</metadata>
<g transform="translate(0.000000,272.000000) scale(0.100000,-0.100000)"
fill="#FFFFFF" stroke="none">
<path d="M492 2359 c-18 -6 -55 -31 -82 -57 -37 -36 -52 -60 -65 -105 -26 -91
1 -164 92 -247 26 -24 53 -53 60 -64 18 -30 18 -1071 0 -1103 -7 -12 -31 -38
-54 -57 -52 -45 -99 -115 -107 -162 -17 -86 49 -200 140 -245 66 -31 163 -25
230 17 88 54 134 168 104 258 -7 21 -44 71 -86 116 l-74 80 0 224 c0 177 3
226 14 235 9 8 118 11 382 9 l369 -3 3 -238 2 -237 -56 -52 c-79 -74 -109
-129 -108 -198 2 -132 104 -230 239 -230 73 0 128 24 178 75 37 38 67 112 67
165 0 45 -48 125 -110 184 l-60 56 0 224 c0 123 3 231 6 240 5 14 51 16 408
16 236 0 416 4 437 10 23 6 40 19 47 36 8 17 12 110 12 287 0 197 3 268 13
287 8 14 39 49 69 78 97 92 119 182 69 281 -25 49 -94 108 -140 121 -127 35
-241 -17 -297 -135 -46 -98 -27 -163 82 -277 l64 -66 0 -224 c0 -122 -4 -229
-8 -236 -7 -9 -90 -12 -383 -10 l-374 3 -3 234 -2 233 73 77 c88 93 107 141
88 224 -11 48 -45 105 -81 135 -34 29 -97 52 -145 52 -72 0 -115 -15 -163 -56
-50 -43 -77 -92 -87 -157 -10 -65 25 -136 105 -211 l60 -56 -2 -238 -3 -237
-369 -3 c-264 -2 -373 1 -382 9 -11 9 -14 58 -14 235 l0 224 74 80 c83 88 101
128 93 202 -10 81 -64 153 -142 189 -43 20 -128 24 -183 8z"/>
</g>
</svg>
