<?xml version="1.0" standalone="no"?>
<!DOCTYPE svg PUBLIC "-//W3C//DTD SVG 20010904//EN"
 "http://www.w3.org/TR/2001/REC-SVG-20010904/DTD/svg10.dtd">
<svg version="1.0" xmlns="http://www.w3.org/2000/svg"
 width="276.000000pt" height="264.000000pt" viewBox="0 0 276.000000 264.000000"
 preserveAspectRatio="xMidYMid meet">
<metadata>
Created by potrace 1.16, written by Peter Selinger 2001-2019
</metadata>
<g transform="translate(0.000000,264.000000) scale(0.100000,-0.100000)"
fill="#FFFFFF" stroke="none">
<path d="M1183 2362 c-52 -28 -793 -681 -803 -708 -6 -14 -10 -37 -10 -51 0
-35 97 -398 117 -437 8 -17 75 -92 147 -166 194 -198 321 -365 451 -593 37
-64 75 -122 85 -127 12 -6 214 -10 527 -10 536 1 526 0 551 47 17 31 17 1985
0 2016 -25 47 -16 46 -538 46 -448 0 -498 -1 -527 -17z m935 -108 l22 -15 0
-438 c0 -383 -2 -440 -15 -451 -23 -19 -1329 -5 -1387 14 -61 22 -114 63 -163
130 -54 72 -63 98 -44 135 11 21 364 337 681 609 32 27 81 30 483 31 347 1
403 -1 423 -15z m-740 -1090 c24 -17 30 -62 10 -82 -8 -8 -63 -12 -179 -12
-181 0 -199 5 -199 55 0 46 31 55 195 55 120 0 155 -3 173 -16z m772 -739 c10
-12 10 -18 0 -30 -11 -13 -76 -15 -472 -15 -400 0 -459 2 -464 15 -4 8 -1 22
6 30 19 23 911 22 930 0z"/>
</g>
</svg>
