<?xml version="1.0" standalone="no"?>
<!DOCTYPE svg PUBLIC "-//W3C//DTD SVG 20010904//EN"
 "http://www.w3.org/TR/2001/REC-SVG-20010904/DTD/svg10.dtd">
<svg version="1.0" xmlns="http://www.w3.org/2000/svg"
 width="512.000000pt" height="512.000000pt" viewBox="0 0 512.000000 512.000000"
 preserveAspectRatio="xMidYMid meet">
<metadata>
Created by potrace 1.16, written by Peter Selinger 2001-2019
</metadata>
<g transform="translate(0.000000,512.000000) scale(0.100000,-0.100000)"
fill="#FFFFFF" stroke="none">
<path d="M1195 4979 c-80 -13 -124 -35 -131 -66 -4 -15 0 -86 9 -157 22 -181
99 -670 106 -678 3 -3 86 2 184 11 l177 18 35 39 c77 86 144 265 145 384 0 63
-25 152 -62 221 -60 115 -192 208 -324 229 -66 11 -69 11 -139 -1z"/>
<path d="M1445 3968 c-281 -21 -327 -32 -361 -83 -9 -14 -19 -47 -21 -73 -5
-49 288 -2598 308 -2687 28 -123 128 -255 238 -314 118 -63 92 -61 1011 -60
459 0 898 4 975 8 128 7 146 10 206 39 115 55 207 166 244 294 13 46 16 94 13
247 l-3 189 -31 39 c-18 22 -51 46 -78 58 l-47 19 -847 -73 c-466 -40 -861
-75 -878 -77 l-31 -6 19 74 c53 207 74 468 48 609 -13 70 -111 267 -196 394
-81 121 -117 197 -149 317 -51 191 -56 373 -14 568 30 138 36 310 14 385 -27
93 -64 133 -135 147 -14 3 -142 -4 -285 -14z m45 -346 c26 -21 36 -67 45 -219
l8 -112 -32 -32 c-27 -26 -37 -30 -64 -25 -50 9 -73 44 -80 117 -22 225 -22
235 6 263 31 31 84 35 117 8z"/>
<path d="M1820 468 c0 -90 5 -181 11 -203 14 -51 73 -110 124 -124 56 -15
1424 -15 1480 0 51 14 110 73 124 124 6 22 11 113 11 203 l0 162 -875 0 -875
0 0 -162z"/>
</g>
</svg>
